<svg xmlns="http://www.w3.org/2000/svg" width="722" height="817" fill="none">
  <path fill="#101B23" d="M674.626 634.844c-33.161 20.181-75.568 13.743-102.115-12.604a1392.494 1392.494 0 0 0 48.529-33.845c7.334-5.34 17.125-10.812 21.941-18.692 10.391-17.018 3.656-46.251 3.246-64.91l-.324-14.762c8.088.867 16.008 3.044 23.322 6.709 13.536 6.776 21.678 16.906 28.85 28.135 21.53 37.662 16.81 85.468-23.449 109.969zm-112.156-24.64c-8.809-12.889-11.793-27.155-10.479-41.229 24.237-.476 48.454-1.217 72.624-2.296-2.256 2.435-4.99 4.751-8.343 7.239-17.355 12.849-35.134 25.183-53.169 37.119-.202-.284-.431-.542-.633-.833zm-17.348 12.572c-31.888 20.518-64.618 39.687-98.048 57.618-11.462-27.671-39.551-45.206-70.072-46.37.687-20.982 4.579-43.406 2.498-64.374 52.752.205 105.658.437 158.503-.404-1.65 17.713 3.987 34.645 14.116 48.964-2.33 1.515-4.654 3.057-6.997 4.566zM411.981 791.985c-37.747 22.973-87.474 11.48-112.156-24.634-15.49-22.676-13.038-49.592-.667-72.241.633.33 1.259.674 1.899 1.005 22.129 11.473 47.835 29.034 72.867 33.554 1.946 1.078 4.377 1.369 6.916.185a1517.221 1517.221 0 0 0 62.214-30.867c11.711 34.102 3.333 72.062-31.073 92.998zm-177.05-149.399c-21.119-12.353-41.942-25.183-62.55-38.344 6.943-11.308 10.883-24.263 11.772-37.384 12.944.377 25.881.701 38.831.972 46.071.973 92.155 1.588 138.239 1.747l9.724.04c-6.296 20.373-5.811 44.074-6.397 64.897-3.091.337-6.183.78-9.267 1.469-23.638 5.26-44.939 20.723-59.708 40.619-20.392-11.03-40.642-22.318-60.644-34.016zm-72.928-44.934a1847.044 1847.044 0 0 1-32.44-21.478c-5.771-3.91-11.455-8.324-17.368-12.3 13.846 1.468 28.036 1.488 41.687 2.004 6.242.239 12.485.411 18.728.609-1.172 10.997-4.64 21.624-10.607 31.165zm-24.998 24.422c-37.747 22.973-87.474 11.48-112.156-24.634-27.032-39.568.518-92.078 40.191-112.213 5.697-2.891 11.813-5.048 18.096-6.464-.472 27.003-.39 54.006 1.333 80.677.202 3.11 2.054 5.023 4.297 5.783.963 1.172 2.337 2.032 3.832 2.429 15.274 16.297 39.14 28.002 57.404 39.912.936.608 1.879 1.204 2.809 1.813-4.506 4.671-9.698 8.978-15.806 12.697zM65.04 331.779c-39.673-20.134-67.223-72.651-40.19-112.213 24.682-36.12 74.41-47.607 112.156-24.64 7.017 4.274 12.897 9.29 17.806 14.808-20.082 12.075-39.471 25.13-56.86 39.919-2.229-1.482-5.528-1.284-6.108 2.038-.228 1.277-.404 2.574-.612 3.864-.122.106-.25.211-.364.317-1.428 1.297-1.246 2.905-.33 4.037-3.832 25.692-4.815 52.291-5.071 78.844-7.112-1.376-14.021-3.725-20.426-6.974zm98.876-109.242c10.66 19.235 11.711 42.321 4.66 63.984-18.628-11.341-37.019-23.106-55.748-34.639 17.341-9.084 34.272-19.095 51.088-29.345zm68.907-40.726a1807.732 1807.732 0 0 1 68.093-34.731c7.711 8.926 16.809 16.648 26.79 22.663-8.937 14.424-17.604 28.987-26.433 43.147a41550.394 41550.394 0 0 0-67.803 109.182c-19.712-9.276-38.549-19.73-57.015-30.787.047-.285.128-.549.169-.834 11.145-23.092 10.135-51.557-2.29-74.286 19.335-11.843 38.65-23.701 58.489-34.354zm67.002-132.155c24.682-36.12 74.409-47.607 112.156-24.64 40.238 24.488 44.973 72.26 23.483 109.909-19.281-11.969-38.656-28.054-60.583-34.426-.957-.278-1.974.317-2.425 1.144a5.894 5.894 0 0 0-.983.159c-23.093 5.823-45.579 18.216-67.069 28.591-16.695-24.158-22.062-55.15-4.579-80.737zm208.52 143.821a1488.544 1488.544 0 0 0 35.868 18.97c-5.489 12.009-7.9 25.216-5.887 38.807 2.122 14.351 7.9 28.485 16.264 41.143-18.526 11.347-38.097 22.212-55.095 35.743a290.91 290.91 0 0 1-1.037-1.72c-21.402-35.863-42.016-72.162-62.038-108.779a4434.243 4434.243 0 0 1-23.786-44.094c9.933-5.201 18.668-12.393 25.409-21.253 22.951 14.497 46.462 28.148 70.302 41.183zm47.835 25.004c10.061 5.042 20.169 9.998 30.359 14.802 6.108 2.878 12.243 5.71 18.392 8.502 4.72 2.144 15.092 4.526 18.499 8.258-20.176 8.721-39.383 23.291-57.802 35.386-13.193-20.194-18.479-44.788-9.448-66.948zm51.465 277.287c7.468-3.137 15.449-5.174 23.557-5.889.256 12.148.518 24.29.774 36.431.041 1.853.135 3.746.243 5.645a17103.987 17103.987 0 0 1-24.574-36.187zm-13.631 7.272c10.708 15.522 21.591 30.919 32.756 46.078 1.192 1.615 2.741 2.501 4.351 2.865-25.248.126-50.502.437-75.75.834 6.459-19.89 20.837-38.079 38.643-49.777zm23.914-164.882c3.354.747 6.721 1.257 10.082 1.594.969 45.748 1.946 91.496 2.916 137.251a84.554 84.554 0 0 0-12.998 1.839c-6.068 1.35-11.967 3.421-17.658 6.015-32.925-48.798-65.237-97.901-95.697-148.34 20.083-9.436 38.757-22.371 57.473-34.09 14.519 17.515 34.217 30.914 55.882 35.731zm9.805-11.427c-8.734-1.158-17.28-3.772-25.072-7.722-11.044-5.611-21.146-13.73-29.396-23.383 18.021-10.475 38.272-20.671 54.327-33.739 1.374 11.559-.666 27.089-.498 34.89.215 9.984.424 19.969.639 29.954zM495.845 348.85c28.959 48.488 58.968 96.684 90.822 143.504-21.517 14.186-38.313 36.59-45.451 60.688-52.577.86-105.153 1.866-157.749 1.978 30.036-72.274 67.459-141.736 112.378-206.17zm-93.535-7.814c27.08.529 54.152 1.045 81.231 1.343a1260.975 1260.975 0 0 0-44.232 70.561c-1.98-25.051-15.637-55.389-36.999-71.904zm-103.529 64.612c2.808-39.21 37.282-58.703 73.412-61.615 1.711-.132 2.169-2.13.916-2.997 34.629 4.929 56.179 52.49 53.587 83.304-.559 6.69-2.176 13.181-4.661 19.262-2.094 3.857-4.114 7.754-6.168 11.632-12.91 19.459-35.754 31.634-61.002 26.189-34.608-7.457-58.536-41.527-56.084-75.775zm-10.23 19.698c-15.611-28.286-29.315-57.618-40.939-87.863 30.427 3.017 61.654 2.422 92.229 2.534-26.487 7.622-48.024 33.831-51.795 60.331-1.192 8.397-.956 16.82.505 24.998zm51.014-249.456c5.084 2.19 10.337 3.93 15.718 5.127a84.715 84.715 0 0 0 45.619-2.461c6.304 12.3 12.675 24.568 19.16 36.776 20.264 38.185 41.646 75.821 63.641 113.066-42.245-.959-84.518-1.363-126.77-2.045-36.454-.582-74.16-3.367-110.863-.807a39062.358 39062.358 0 0 1 60.22-97.358c10.762-17.329 22.244-34.678 33.275-52.298zm-4.991-17.125a97.321 97.321 0 0 1-21.382-17.375c16.056-7.126 32.871-13.65 48.462-21.65-9.644 12.459-18.54 25.62-27.08 39.025zm42.435-48.01c.289-.325.545-.669.74-1.033 13.564 14.736 32.858 25.501 49.943 36.088-5.441 6.703-11.927 12.618-20.722 17.104-.33-.628-.666-1.25-.996-1.879-8.297-15.794-15.732-37.503-28.965-50.28zm13.536 47.455c1.556 3.11 3.158 6.193 4.727 9.296-15.92 4.572-33.436 3.328-48.825-2.772 9.415-15.49 18.204-31.258 25.74-47.422 2.956 14.199 12.129 28.452 18.358 40.898zM150.252 481.76c28.278-46.33 56.623-89.888 85.097-136.112 29.962 77.429 72.799 148.724 127.18 214.891h-1.306c-44.872 0-89.737-3.295-134.602-4.023-14.23-.232-28.46-1.853-42.684-2.111-.902-9.177-3.299-18.864-7.313-27.175-2.95-18.586-12.762-34.618-26.372-45.47zm-6.344 10.415c6.741 5.763 11.866 12.605 16.546 19.936 7.341 12.843 11.57 26.864 12.419 40.733-5.119-.086-10.237-.186-15.355-.265-16.506-.245-33.659-1.363-50.354-.106 12.223-20.115 24.487-40.203 36.744-60.298zm-44.96-15.338c11.26-.198 22.541 2.065 32.656 7.133.592.298 1.118.635 1.683.94-11.704 19.122-23.415 38.238-35.086 57.38.788-21.749.882-43.591.747-65.453zm73.602-171.558c15.832 9.495 32.285 18.004 48.831 25.885.068 1.436.876 2.852 2.425 3.123.633.112 1.279.198 1.919.304-28.824 46.615-57.519 93.302-86.148 140.036-12.142-6.782-26.197-10.553-40.723-10.56-.155-19.374-.337-38.727-.121-57.982.202-17.72.505-35.433.794-53.146 31.929-.277 61.581-18.526 73.023-47.66zm-72.127-47.044c2.196-1.072 4.351-2.237 6.533-3.342 16.748 17.045 35.914 31.721 56.327 44.67a103.801 103.801 0 0 1-2.829 5.333c-7.172 11.228-15.314 21.358-28.85 28.134-9.886 4.949-20.877 7.219-31.888 7.133.047-2.985.08-5.975.135-8.959.411-24.132 2.417-48.845.572-72.969zM372.618 546.18c-18.594-21.563-35.787-44.166-51.58-67.649 10.789 8.271 23.645 13.962 37.787 15.854 14.951 1.992 28.905-1.026 40.879-7.49-9.556 19.486-18.634 39.217-27.086 59.285zm4.343 100.574c10.243.225 20.413 2.515 29.619 7.127 13.536 6.782 21.678 16.905 28.85 28.14.68 1.178 1.253 2.402 1.873 3.6-19.389 10.216-39.034 19.976-58.867 29.352 2.121-22.087-.943-45.642-1.475-68.219zm-11.071 65.473c-17.826-11.242-39.579-19.149-57.378-28.65-.458-.245-.916-.497-1.374-.742 8.809-11.546 20.224-21.272 32.878-27.697 7.482-3.798 15.658-6.359 24.035-7.583-.949 21.121-2.195 44.186 1.839 64.672zm308.736-530.071c40.259 24.501 44.979 72.314 23.449 109.969-7.172 11.229-15.314 21.359-28.85 28.135-8.385 4.201-17.571 6.457-26.884 7.007-.586-26.904-1.172-53.801-1.765-80.698-.047-2.309-1.3-5.174-3.603-6.173a1596.756 1596.756 0 0 1-73.911-34.381c24.864-35.478 74.1-46.654 111.564-23.859zm-28.999 295.171c-.431-19.539-.855-39.072-1.286-58.611l-1.718-78.752c34.885-2.554 65.938-26.473 71.629-62.283 12.553-26.01 9.718-58.856-7.523-82.61-23.517-32.408-67.372-46.171-105.583-32.931-19.699 6.828-38.064 20.545-49.93 37.96a1478.468 1478.468 0 0 1-50.461-26.831c-18.749-10.447-37.255-21.332-55.607-32.448a70.564 70.564 0 0 0 6.459-20.28c12.553-26.01 9.718-58.856-7.523-82.617C420.567 5.522 376.712-8.24 338.501 5c-36.656 12.704-68.719 49.235-62.82 89.114 2.169 14.682 8.149 29.159 16.83 42.035-22.466 10.845-44.677 22.173-66.584 34.07-19.739 10.713-40.272 21.524-60.354 33.163-24.184-29.16-65.662-41.083-102.048-28.472-36.656 12.704-68.726 49.235-62.82 89.114 5.873 39.707 39.444 77.972 79.602 86.904a85.2 85.2 0 0 0 5.078.953c-.06 17.051.02 34.016-.33 50.638-.444 20.842-1.152 41.877-1.643 62.944a71.87 71.87 0 0 0-3.105.609C40.15 475.004 6.578 513.269.705 552.976c-5.906 39.879 26.164 76.41 62.82 89.114 35.309 12.241 75.406 1.376 99.852-25.911a1877.578 1877.578 0 0 0 61.055 37.464c20.796 12.201 41.821 24.011 63.122 35.339-5.973 10.713-10.149 22.233-11.873 33.904-5.899 39.879 26.164 76.41 62.82 89.114 38.211 13.24 82.066-.522 105.583-32.924 17.241-23.761 20.076-56.6 7.523-82.617-.101-.602-.23-1.184-.337-1.78 23.813-12.677 47.263-25.997 70.315-40.004 13.448-8.172 26.749-16.595 39.915-25.203 11.058 11.4 24.978 20.306 39.646 25.388 38.211 13.24 82.066-.523 105.583-32.925 17.241-23.76 20.076-56.606 7.523-82.616-5.523-34.777-34.979-58.326-68.625-61.992"/>
</svg>
