<svg xmlns="http://www.w3.org/2000/svg" width="949" height="1086" fill="none">
  <path fill="#101B23" d="M886.118 763.732c-21.376-11.385-42.6-23.044-63.74-34.861 15.89-28.882 23.797-63.558 20.797-96.326 28.528 50.821 55.591 102.446 81.35 154.787-10.986-10.246-25.138-16.535-38.407-23.6zm-111.905 36.027c-28.447 1.431-56.894 2.87-85.341 4.31-16.136.812-34.085-.168-49.707 5.052 4.852-8.382 9.415-16.949 13.954-25.358 45.872 20.827 97.017 20.332 137.639-14.944 8.514-7.393 16.145-16.119 22.831-25.728.492.265.975.538 1.466.803 21.038 11.376 42.218 22.47 63.491 33.351 10.737 5.494 21.722 11.809 33.259 15.571l-137.592 6.943zm-165.168 33.624c-5.795 8.259-10.715 17.329-15.772 25.437-.161.257-.322.522-.483.778 8.165-18.946 13.178-39.693 16.703-59.345 2.662-14.838 3.471-29.606 1.548-43.843 4.198 4.054 8.652 7.887 13.596 11.27a201.93 201.93 0 0 0 12.498 7.852c-10.739 18.53-21.711 37.687-28.09 57.851zm-29.584 8.744c-11.788 34.65-35.8 60.581-70.906 71.162-66.609 20.076-135.362-29.058-150.327-96.36-12.154-54.699 12.075-103.162 54.052-125.384 60.887-11.12 131.426-25.923 170.05 36.522 21.424 34.631 9.201 78.607-2.869 114.06zm-31.319 89.048c-24.691 39.586-53.107 79.135-74.776 121.125-22.091-41.6-50.145-81.15-74.217-121.417-11.494-19.219-22.886-38.509-34.243-57.807 11.138 16.437 25.427 30.825 42.334 41.803 51.272 33.263 121.764 26.435 162.819-18.839l-21.917 35.135zm-228.586-135.93a8.517 8.517 0 0 0-1.085-1.457c-.503-1.581-.99-3.171-1.537-4.743 8.439-4.981 16.109-10.731 22.574-17.285-3.514 29.067 2.348 58.506 15.454 84.393a9629.29 9629.29 0 0 1-35.406-60.908zm-9.841-24.076c-7.187-15.916-15.891-31.461-23.373-46.706-9.378-19.104-19.007-38.085-29.007-56.854 35.188 5.026 70.472 7.269 105.803 8.1-3.197 15.668-8.557 31.045-14.154 45.663-8.589 22.39-21.826 38.632-39.269 49.797zm-41.127 15.995c-37.901 7.719-74.952 4.849-103.114-25.623-8.021-8.682-14.694-18.486-19.995-28.996a6360.812 6360.812 0 0 0 95.813-57.711c8.934 16.843 17.669 33.802 26.128 50.892 8.639 17.453 16.172 36.478 25.225 54.239-7.461 3.048-15.462 5.45-24.057 7.199zM161.839 800.05c-38.977.769-78.882-2.667-118.115-2.102 7.655-4.549 14.343-10.705 19.913-18.309 23.427-10.74 45.724-25.172 67.578-38.527 9.753 19.652 23.664 37.078 41.575 49.92 4.488 3.215 9.403 5.874 14.505 8.241-8.479.291-16.966.609-25.456.777zM32.153 787.588c-2.661 1.766-5.321 3.542-7.919 5.432a137056.49 137056.49 0 0 1 72.302-138.27c12.346-23.556 24.711-47.103 37.014-70.685 5.682-10.891 20.743-30.136 24.033-44.851 3.768 6.571 8.019 12.939 12.443 19.219-21.701 16.923-38.778 40.655-47.382 65.421-11.191 32.238-10.074 69.157 1.87 101.828-31.409 18.203-65.498 35.25-91.648 60.289a2.283 2.283 0 0 0-.713 1.617zm99.618-317.655c-28.472-57.127-7.924-134.066 42.796-169.589 23.862-16.711 53.698-23.265 82.665-20.447 30.858 3.003 54.902 17.947 79.474 35.497 9.197 34.526 20.231 65.298 13.881 102.058-5.57 32.238-22.054 61.579-46.853 82.29-51.282 42.846-139.419 35.498-171.963-29.809zm-44.353-62.162c-23.01-42.439-44.793-85.479-65.524-129.066 53.463-.839 106.933-1.811 160.393-2.827-42.829 21.198-71.761 65.483-78.652 113.681a155.456 155.456 0 0 0 .86 49.223 3089.058 3089.058 0 0 1-17.077-31.011zm219.178-135.903c7.301 1.679 14.749 2.791 22.262 3.551.473 6.262 1.303 12.515 2.559 18.68-9.136-8.752-20.103-15.518-31.999-20.57a89.376 89.376 0 0 0 7.178-1.661zm141.019-136.326c.286-.045.581-.08.877-.115.043.53.103 1.051.155 1.572-4.512 22.116-.727 48.984-.863 70.014-.121 19.192-.138 38.385-.121 57.569-24.504-1.21-48.999-2.456-73.503-3.63-10.188-.486-20.59-1.308-31.022-1.802 1.955-61.526 48.401-106.465 104.477-123.608zm-56.439 3.056c20.367-32.45 41.446-64.432 62.429-96.467-2.895 25.322-6.09 51.537-5.818 76.841-2.134.433-4.276.91-6.432 1.519-19.223 5.353-37.024 15.828-52.64 29.103-2.78 1.943-5.462 4.018-8.099 6.156 3.476-5.75 6.996-11.464 10.56-17.152zm72.084 73.14c-.235-22.487 3.91-51.316-1.164-74.951.179-.742.368-1.475.539-2.217 37.025.724 68.636 25.879 93.565 52.261 3.036 3.206 5.698 6.456 8.212 9.733 4.748 9.698 9.87 19.343 15.445 28.502 3.91 11.747 5.172 23.812 4.324 36.142-40.189 2.8-79.888 5.264-120.533 3.983-.092-17.815-.209-35.638-.388-53.453zm9.175-190.372c9.59 17.073 21.615 32.971 31.359 49.894 14.075 24.439 25.793 50.044 37.745 75.569.522 1.104 1.054 2.279 1.577 3.418-23.218-18.866-48.796-32.865-77.155-33.041 4.854-31.267 4.738-64.9 6.474-95.84zM596.14 306.897c44.993-33.969 103.932-47.729 155.097-11.393 58.945 41.874 73.977 125.507 29.842 182.246-34.005 43.711-95.493 60.872-142.994 38.253-21.028-35.992-43.323-71.224-66.745-105.697-2.354-17.85-1.877-35.983 1.782-53.214a123.048 123.048 0 0 1 8.881-26.515c1.318-2.473 2.6-4.99 3.847-7.552a142.499 142.499 0 0 1 10.29-16.128zm5.164-28.175c1.623-.256 3.228-.574 4.842-.856-1.85 1.307-3.753 2.552-5.488 3.992.236-1.042.437-2.093.646-3.136zm313.382-12.815a1893.11 1893.11 0 0 1-103.755 198.63c6.655-13.266 11.309-27.584 13.368-42.537 8.131-58.92-24.356-121.162-76.163-149.708 55.593.133 111.132-2.04 166.55-6.385zM779.261 515.596c-1.299 2.023-1.315 4.858-.425 7.155-2.607 2.994-5.061 6.209-7.383 9.591-6.107-2.64-12.362-4.76-18.702-6.209 18.228-10.475 34.172-25.013 46.472-42.201a1866.187 1866.187 0 0 1-19.962 31.664zm-71.847 170.729c.11-.194.212-.38.322-.574 1.099.186 2.207.353 3.306.548 1.03.176 1.987.185 2.899.079 27.633 16.366 55.461 32.397 83.577 47.88-17.72 24.952-43.352 43.102-75.438 46.591-20.447 2.225-41.491-3.021-60.834-11.827 15.416-27.548 30.867-55.078 46.168-82.697zm-18.746-3.55c-13.635 24.606-27.2 49.249-40.765 73.891a348.223 348.223 0 0 1-2.378 4.248A205.505 205.505 0 0 1 632.853 753c-27.1-18.38-38.527-47.014-42.03-78.042 32.678.945 65.3 3.206 97.845 7.817zM523.002 371.753c-9.188 6.024-19.442 10.679-30.872 13.628-9.315 2.412-18.563 3.622-27.627 3.763-.207-24.527-.413-49.046-.577-73.564-.04-6.916-.071-13.823-.112-20.739a1826.83 1826.83 0 0 1 59.188 76.912zm13.656-10.713a1866.641 1866.641 0 0 0-59.277-77.08c34.337 1.281 69.411 1.307 103.624-2.482-2.636 10.961-6.679 22.098-11.86 33.386-8.183 17.815-18.885 33.696-32.487 46.176zm22.647 70.543c9.438 41.442 32.851 76.4 65.581 95.946 2.137 3.648 4.206 7.331 6.309 10.996-18.143 11.403-33.628 29.677-43.196 47.951-5.549-3.666-11.114-7.313-16.655-11.005-29.469-19.643-70.092-52.42-107.205-54.204.057-.248.123-.486.154-.76 3.798-31.478.784-64.591.488-96.369-.059-5.874-.091-11.756-.141-17.638 24.357-.327 48.164-7.402 68.638-20.527a1902.321 1902.321 0 0 1 23.943 34.393c.583 3.798 1.251 7.552 2.084 11.217zM691.801 652.7c-.096-.061-.202-.123-.299-.185-30.445-18.68-60.568-37.855-90.463-57.428 3.824-8.523 8.7-16.534 14.833-23.714 7.065-8.259 14.886-14.344 23.305-18.955 18.524 32.848 36.057 66.305 52.624 100.282zm-102.092 6.395c-.465-15.598 1.003-31.611 5.149-46.714 27.448 17.877 55.168 35.312 83.126 52.358-29.376-3.374-58.812-5.008-88.275-5.644zm94.475-110.704c26.404-5.141 52.761-8.912 77.797-.468-6.882 12.612-12.831 25.923-19.133 37.272-11.606 20.88-23.203 41.759-34.81 62.639-16.595-34.658-34.304-68.751-53.038-102.243 3.375-1.131 6.796-2.173 10.306-3.047a119.973 119.973 0 0 0 15.296 1.634c-1.089 2.093 1.249 4.672 3.582 4.213zM555.309 387.104a1680.285 1680.285 0 0 0-8.099-11.438 127.578 127.578 0 0 0 10.003-9.486c-1.055 6.942-1.658 13.946-1.904 20.924zM371.795 595.176c30.03-18.99 59.448-38.739 87.222-60.096 17.282 10.529 37.752 15.784 55.609 25.835 18.797 10.581 36.68 22.761 54.671 34.685 3.861 2.561 7.747 5.087 11.624 7.631-5.614 17.408-8.426 36.495-8.131 55.59-62.97-.618-126.064 2.5-189.019 1.793 1.922-22.54-2.081-45.045-11.976-65.438zm-15.291 9.645a116.096 116.096 0 0 1 5.891 15.907c3.776 13.124 4.413 26.399 3.117 39.577-30.117-.733-60.199-2.508-90.215-6.182 26.923-16.305 54.212-32.556 81.207-49.302zm91.197-318.715c-18.907 25.791-36.869 52.429-54.117 79.641-27.026-20.261-45.951-52.084-49.742-89.162 8.709.503 17.406.83 25.916 1.351 25.98 1.599 51.953 3.268 77.939 4.637l.004 3.533zm.333 102.049c-14.204-1.855-27.676-6.43-39.981-13.134 13.404-23.821 26.65-47.739 39.676-71.807l.017 7.64c.061 25.773.174 51.537.288 77.301zm-101.25 199.672c-.559.362-1.11.733-1.67 1.095-28.01 18.009-56.171 35.771-84.413 53.4 14.806-29.208 30.096-58.116 45.781-86.768 15.716 6.677 29.693 17.329 40.302 32.273zm-31.329-48.56c27.59-49.92 55.953-99.346 84.009-148.992 2.124 1.174 4.214 2.375 6.414 3.418 13.668 6.474 27.93 10.378 42.226 11.994.012 3.003.017 6.006.03 9.018.166 34.04-2.82 70.075 1.875 103.841.098.672.308 1.299.57 1.908-30.498 17.444-59.563 38.059-88.949 57.622-11.982-17.02-28.157-30.145-46.175-38.809zm54.671-171.285c4.422 4.495 9.212 8.62 14.242 12.462a1736.555 1736.555 0 0 0-13.687 22.425c1.041-11.676.907-23.414-.555-34.887zm-80.274 162.214c4.929-2.482 9.668-5.379 14.301-8.452-1.901 3.603-3.81 7.207-5.693 10.81-2.85-.865-5.709-1.704-8.608-2.358zm-85.642 47.227c-2.568-3.878-5.19-7.897-7.856-11.942.942.097 1.931-.026 2.914-.591 28.193-16.376 61.016-21.666 90.167-14.936-15.777 30.542-31.144 61.19-46.295 91.706-12.25-21.842-25.095-43.367-38.93-64.237zm-34.538-46.785a108.322 108.322 0 0 0 6.006 2.888c7.659 3.418 15.486 5.944 23.373 7.799-4.936 2.04-9.744 4.469-14.417 7.19-4.651-6.316-9.577-12.41-14.962-17.877zm10.49 41.953c3.239 4.523 6.425 9.045 9.404 13.602 14.929 22.885 28.841 46.405 41.995 70.358.538.981 1.041 1.979 1.578 2.959-31.32 19.387-62.721 38.633-94.256 57.649-5.335-14.9-8.119-30.719-8.143-46.511-.069-44.312 19.94-75.764 49.422-98.057zM381.58 676.018c8.467.088 16.943.123 25.417.097a102.493 102.493 0 0 0-7.82 3.957 200.634 200.634 0 0 0-20.672 10.519c1.183-4.946 2.176-9.804 3.075-14.573zm195.461 18.15c-9.355-8.32-19.778-14.847-30.907-19.802 9.222-.009 18.447.062 27.672.212.714 6.607 1.732 13.169 3.235 19.59zm248.284-56.385c1.322 27.892-5.346 57.268-18.855 82.131-29.807-16.807-59.437-33.933-88.795-51.545-.046-.097-.099-.203-.144-.3 12.079-21.79 24.149-43.588 36.219-65.377 8.416-15.183 18.051-30.392 26.914-45.884.071.044.149.088.228.133 27.662 17.585 42.909 48.462 44.433 80.842zm122.304 157.895c-22.64-46.582-46.403-92.598-71.348-137.978-12.472-22.691-25.177-45.248-38.175-67.647a3025.38 3025.38 0 0 0-18.529-31.505c-5.256-8.815-19.989-25.358-21.285-35.17a15.157 15.157 0 0 1-.089-2.341 7.67 7.67 0 0 0 .086-1.157c.987-9.097 9.664-18.256 14.169-25.517a1895.43 1895.43 0 0 0 18.256-30.056 1833.495 1833.495 0 0 0 36.868-65.041c24.42-45.178 46.839-91.424 67.548-138.509 2.275-5.175-.513-13.116-7.291-12.542-96.685 8.241-193.722 9.689-290.815 4.337-5.199-.291-7.686 3.63-7.665 7.72-9.225-16.04-21.363-30.251-32.159-45.478-4.187-9.954-10.006-19.184-16.764-27.787-10.396-19.554-19.669-39.683-29.183-59.68-20.371-42.836-43.556-97.394-82.02-126.779-1.506-1.148-3.608-.353-4.664 1.095-2.598.204-5.154 1.422-6.623 3.71-28.334 44.144-57.151 88.04-84.729 132.679-12.054 19.502-23.624 39.366-33.641 60.06-6.622 13.681-15.041 29.217-18.595 44.895a3.907 3.907 0 0 0-.464 1.439c-.617 5.538-12.369 11.2-17.216 12.79-5.739 1.872-12.933.892-18.883 1.024-12.664.292-25.359.274-38.034.433-26.942.327-53.883.653-80.825.989-52.301.636-104.588 1.519-156.885 2.385-6.698.115-9.73 6.995-6.986 12.71 20.905 43.561 42.596 86.777 65.278 129.437a3029.09 3029.09 0 0 0 34.805 63.584c10.636 18.875 26.326 38.65 34.042 58.806 6.881 17.991-15.166 44.947-23.652 61.225a156060.844 156060.844 0 0 0-34.66 66.632 105058.114 105058.114 0 0 1-69.415 133.2c-2.347 4.495-.357 8.735 2.907 10.996-.836.512-1.663 1.025-2.499 1.528-4.093 2.499-3.508 9.777 1.574 10.881 45.873 9.937 96.122 7.234 142.655 6.678a1806.648 1806.648 0 0 0 75.146-2.465 1830.55 1830.55 0 0 0 37.507-2.42c10.559-.786 31.431-6.377 40.623-1.74 8.719 4.399 14.868 21.746 19.86 30.366a9547.02 9547.02 0 0 0 19.17 32.953 7881.855 7881.855 0 0 0 38.839 65.616c25.895 43.313 50.101 90.406 80.508 130.736-1.068 2.36-2.144 4.71-3.168 7.08-2.048 4.76 3.884 10.62 7.814 6.04 1.819-2.12 3.542-4.35 5.317-6.52 4.057-.42 7.499-3.88 6.885-8.58 25.028-32.64 45.406-69.854 67.043-104.573 13.363-21.454 26.718-42.899 40.081-64.344 12.812-20.553 24.471-47.438 41.654-64.529 19.033-18.919 57.862-13.672 82.848-14.944l75.864-3.886 151.735-7.764c6.79-.353 10.112-7.031 7.18-13.072"/>
</svg>
