<svg xmlns="http://www.w3.org/2000/svg" width="841" height="878" fill="none">
  <path fill="#101B23" d="M782.102 635.265c-22.261-36.714-44.127-73.659-65.805-110.719 33.311-19.288 61.652-47.128 79.923-81.791 12.912-24.487 20.723-50.597 23.743-76.954 11.284 91.661-.251 186.701-37.861 269.464zm-153.564 17.649c.729-33.369-4.994-67.315-17.404-98.138 31.344-1.005 62.615-8.857 91.005-22.708 22.545 38.527 45.308 76.922 68.476 115.061-47.34 2.48-94.705 4.384-142.077 5.785zm58.309 113.544c-48.109 43.182-107.599 74.566-170.749 87.106 16.919-10.728 32.347-24.372 45.34-37.917 29.49-30.749 50.748-69.218 60.624-111.04 2.736-11.585 4.59-23.499 5.618-35.569 46.798-1.36 93.579-3.214 140.345-5.619-20.902 38.139-47.794 73.082-81.178 103.039zM474.821 859.01c-9.01.568-18.02.676-27.005.412 8.678-14.748 14.716-33.905 21.411-47.887 22.375-46.749 44.831-93.457 67.06-140.281.048-.099.064-.189.105-.288 25.394-.363 50.78-.841 76.166-1.516-.072.955-.129 1.919-.218 2.867-4.347 46.56-23.274 90.986-53.411 126.233-23.063 26.984-50.967 42.597-79.672 60.073-1.481.115-2.955.288-4.436.387zm-198.686-45.547c-38.095-33.912-53.055-93.688-57.653-145.925 30.041 1.096 60.09 1.945 90.139 2.604-.138 34.736 22.99 75.891 38.71 105.058a509.941 509.941 0 0 0 34.186 54.775c5.132 7.176 10.702 16 16.822 24.223-42.062-7.555-83.21-22.46-122.204-40.735zm-49.258-25.237c-57.621-31.976-110.765-73.897-149.824-127.394a6328.684 6328.684 0 0 0 125.579 6.129c3.473 42.086 14.094 91.044 36.355 127.849a844.744 844.744 0 0 1-12.11-6.584zM126.166 529.473c27.078 15.259 57.604 22.889 88.819 23.737-9.042 25.13-13.6 52.592-13.689 80.976-.016 5.363.097 10.999.348 16.824a6265.407 6265.407 0 0 1-131.585-6.476c16.934-39.301 35.869-77.539 56.107-115.061zm-78.927 82.755C6.099 530.132 10.276 432.522 27.794 344.28c.648 32.578 7.448 65.296 20.57 96.003 15.324 35.866 37.86 62.512 64.55 80.91-19.639 36.302-38.03 73.288-54.56 111.238-3.895-6.592-7.659-13.29-11.115-20.203zm7.205-353.678c2.51-5.816 5.205-11.543 7.973-17.236 14.401 32.899 30.227 65.131 47.68 96.473 16.765 30.082 34.048 62.973 57.329 88.893-16.408 27.017-32.396 54.297-47.656 81.981-14.449-10.118-27.433-22.848-38.216-38.461-42.102-60.97-52.019-142.423-27.11-211.65zm123.603-23.63c34.736 2.225 72.111 8.511 107.212 6.789-17.162 26.745-34.461 53.407-51.712 80.094-.178-.008-.348-.008-.526-.017-3.157-.065-3.959 3.008-2.793 5.142-1.069 1.656-2.145 3.312-3.222 4.977-17.963 27.832-35.74 55.82-53.079 84.089-15.948-30.559-36.825-59.067-53.436-89.132-17.679-32.018-33.522-64.958-48.141-98.517 35.238 2.101 70.467 4.318 105.697 6.575zm-98.954-24.569c.826-1.203 1.627-2.422 2.477-3.601 29.644-41.138 74.135-69.819 123.482-79.022 43.803-8.174 86.075.222 126.041 17.352 3.473 2.208 6.897 4.465 10.216 6.838-5.092 8.577-10.2 17.129-15.462 25.616-10.54 16.989-21.241 33.871-32 50.721-35.723-7.416-75.155-5.586-111.469-7.729-35.157-2.076-70.298-4.185-105.447-6.41.729-1.252 1.425-2.521 2.162-3.765zm80.611-97.396c71.69-63.105 164.046-95.69 258.046-99.283.162.519.357 1.021.616 1.491-6.654 12.005-12.993 24.199-19.445 36.319-.04.074-.056.148-.097.222-16.473 28.747-32.607 57.683-49.315 86.306-4.493-2.826-9.099-5.495-13.859-7.926-2.193-1.12-4.298-1.121-6.079-.428-61.15-32.71-139.632-25.748-198.329 11.09 9.026-9.69 18.481-19.008 28.462-27.791zm332.084 36.631c-17.388 12.054-33.19 26.383-46.644 42.746a233.002 233.002 0 0 0-20.926 29.982c-15.016-29.818-36.095-56.233-62.453-75.883 16.344-28.187 31.725-56.826 45.413-86.125.964-.478 1.862-1.236 2.591-2.365 6.662-10.323 13.413-20.59 19.954-30.988 20.311 41.073 41.075 81.915 62.065 122.633zm180.698-48.463c7.61 5.216 14.839 10.678 21.825 16.306-.033-.017-.057-.042-.097-.058-62.308-21.093-132.387-10.299-188.77 23.399-20.796-40.397-41.365-80.917-61.498-121.669 80.935 3.527 161.975 36.468 228.54 82.022zm88.277 89.182c-.849-.882-1.675-1.78-2.542-2.645-2.177-2.167-5.245 1.063-3.303 3.362 5.707 6.756 10.905 13.982 15.673 21.529-72.88 7.967-147.768 2.051-219.879 14.814-12.919-24.372-25.75-48.801-38.427-73.305 52.861-30.955 117.476-38.576 181.152-30.872 2.744.33 3.448-2.966 2.088-4.795 25.969 21.109 47.615 45.093 65.238 71.912zM550.162 472.548c-8.297-6.336-17.227-11.938-26.617-16.849a1807.228 1807.228 0 0 1 70.128-114.764 8149.112 8149.112 0 0 0 100.201 177.028c-23.403 11.321-48.959 18.341-75.017 20.409-5.011.403-9.949.585-14.839.601-12.839-25.822-30.745-48.785-53.856-66.425zM426.088 655.583c1.199-.939 2.202-2.175 2.809-3.658 18.449-45.283 38.784-89.627 60.868-133.023 30.283 20.895 65.78 33.822 103.94 35.767 13.616 30.642 20.084 65.065 19.615 98.673-62.397 1.689-124.818 2.414-187.232 2.241zM231.742 552.98c38.136-1.87 76.507-13.62 110.271-33.583 24.439 44.78 48.878 89.56 73.317 134.332a7.851 7.851 0 0 0 1.401 1.854 6279.85 6279.85 0 0 1-199.342-4.021c-1.603-34.151 2.583-68.262 14.353-98.582zm161.845-227.923c-47.64-.659-95.272-1.82-142.903-2.875 33.999-53.011 69.869-106.261 102.5-161.151 26.382 21.644 47.324 48.858 61.41 79.517-12.58 26.703-19.656 55.384-21.007 84.509zm41.082.396c-8.524-.049-17.04-.082-25.564-.173.68-22.131 4.889-44.368 13.146-65.831a221.083 221.083 0 0 1 12.418 66.004zm75.301 123.77c-23.865-10.332-50.157-16.544-76.839-18.81a193.858 193.858 0 0 1-2.768-5.529c7.123-14.905 12.62-30.872 16.012-47.886 2.307-11.56 3.651-23.359 4.096-35.239 42.119.032 84.253-1.088 126.332-2.884a1758.463 1758.463 0 0 0-66.833 110.348zm5.674 20.664c30.405 15.168 53.606 39.375 69.739 68.205-33.117-3.222-62.996-15.227-88.39-33.271a1801.138 1801.138 0 0 1 18.651-34.934zm-72.361-21.834c20.391 2.851 40.265 8.099 58.689 15.63-5.772 10.587-11.406 21.24-16.967 31.943-16.215-13.529-30.276-29.653-41.722-47.573zm-24.529-2.249c1.465.066 2.923.082 4.38.173 14.207 24.89 32.801 46.56 54.536 63.944a1842.596 1842.596 0 0 0-56.795 122.839c-22.051-40.471-44.11-80.942-66.169-121.421 25.322-17.187 47.486-39.211 64.048-65.535zm-92.194 13.891c22.844-8.585 47.663-13.133 72.742-13.974-13.972 20.178-31.611 37.827-51.865 52.278-6.962-12.77-13.924-25.533-20.877-38.304zm8.321 46.626c-6.678 4.111-13.543 7.967-20.683 11.378-23.646 11.305-49.671 18.234-75.883 20.376 13.972-28.154 35.4-52.105 65.967-68.361 2.744-1.458 5.561-2.785 8.378-4.103l22.221 40.71zm74.321-164.974a2006 2006 0 0 0 25.37.362 194.767 194.767 0 0 1-12.985 62.091c-7.123-19.972-11.389-41.056-12.385-62.453zm2.866 82.878c.04.091.081.173.121.264-.89 1.697-1.837 3.361-2.776 5.026-31.579.066-62.826 5.537-90.487 16.173L256.828 331.74c45.365 5.091 90.924 7.959 136.564 9.227.737 28.047 6.825 56.25 18.676 83.258zm143.161-188.333c35.505 3.263 71.852.709 107.373-.494 34.315-1.162 68.574-2.612 102.711-6.196-37.65 61.44-77.559 122.345-112.052 185.606a8145.401 8145.401 0 0 1-98.032-178.916zm28.689 87.18c-44.474 1.92-88.949 2.571-133.415 2.472-.947-29.653-7.415-59.413-18.821-86.941 2.825-5.388 5.885-10.711 9.269-15.943 16.109-24.907 35.675-44.632 57.645-59.858 27.839 53.761 56.301 107.168 85.322 160.27zM181.916 432.39c19.518-32.347 39.602-64.365 59.839-96.251.049-.074.098-.148.146-.23.041.082.057.156.105.239l62.996 115.431c-39.682 18.918-67.456 49.881-84.221 87.221-30.818-.074-61.256-7.012-87.791-21.85 14.741-26.836 30.146-53.308 45.915-79.559 2.227.091 4.137-2.463 3.011-5.001zm248.495 422.978c-8.653 4.433-9.317-.692-15.542-8.181-22.221-26.712-41.617-55.739-57.985-86.521-9.245-17.401-17.356-35.272-24.949-53.472-5.06-12.145-8.962-25.484-15.648-36.871a6275.676 6275.676 0 0 0 201.931.915c-16.594 34.605-33.076 69.259-49.582 103.905-7.65 16.05-15.292 32.092-22.933 48.133-2.809 5.9-9.852 29.299-15.292 32.092zm362.611-445.067c-15.607 43.371-46.676 77.803-84.99 100.107a8358.075 8358.075 0 0 1-45.851-79.83c42.88-63.542 80.303-131.762 119.637-197.734 26.447 54.313 31.321 121.537 11.204 177.457zm42.799-49.691c-12.831-98.319-48.295-188.572-125.749-251.89C635.201 47.519 532.013 1.923 434.621 2.59c-.931-.824-2.162-1.392-3.724-1.466C277.544-6.053 134.164 80.542 59.349 213.268c-4.015.782-5.69 5.199-4.938 9.063-9.293 17.467-17.477 35.651-24.293 54.527-15.77 43.685-23.282 89.783-27.305 136.005-4.226 48.455-5.051 97.948 7.31 145.332 8.662 33.188 22.811 64.101 40.904 92.502-.478 4.054 1.603 7.704 5.731 8.742 27.92 41.188 64.17 76.79 104.136 105.825 32.097 23.317 67.772 44.673 105.26 62.305 15.202 12.952 33.627 21.331 55.823 22.823 29.847 10.422 60.244 18.184 90.439 22.32 1.287.181 2.574.272 3.861.436.332.239.656.552.988.783 5.958 4.087 11.997 4.07 17.347.931 75.107 4.878 150.124-17.178 213.613-58.333 60.705-39.343 106.718-92.981 138.491-154.445 4.088-1.467 6.735-5.974 5.1-10.291 42.742-88.185 57.046-191.324 44.005-291.183"/>
</svg>
