<svg width="11" height="17" viewBox="0 0 11 17" fill="none" xmlns="http://www.w3.org/2000/svg">
<path d="M2.88388 0.819242C2.39573 0.331086 1.60427 0.331086 1.11612 0.819242C0.627961 1.3074 0.627961 2.09885 1.11612 2.58701L2.88388 0.819242ZM9 8.70312L9.88388 9.58701C10.372 9.09885 10.372 8.3074 9.88388 7.81924L9 8.70312ZM1.11612 14.8192C0.627961 15.3074 0.627961 16.0989 1.11612 16.587C1.60427 17.0752 2.39573 17.0752 2.88388 16.587L1.11612 14.8192ZM1.11612 2.58701L8.11612 9.58701L9.88388 7.81924L2.88388 0.819242L1.11612 2.58701ZM8.11612 7.81924L1.11612 14.8192L2.88388 16.587L9.88388 9.58701L8.11612 7.81924Z" fill="white"/>
</svg>
