<svg xmlns="http://www.w3.org/2000/svg" width="40" height="40" fill="none">
  <path fill="#fff" d="M20 3.604c5.34 0 5.973.02 8.082.116 1.95.09 3.009.415 3.713.689.934.363 1.6.796 2.3 1.496.7.7 1.133 1.366 1.496 2.3.274.704.6 1.763.689 3.713.096 2.11.116 2.742.116 8.082 0 5.34-.02 5.973-.116 8.082-.09 1.95-.415 3.009-.689 3.713-.363.934-.796 1.6-1.496 2.3-.7.7-1.366 1.133-2.3 1.496-.704.274-1.763.6-3.713.689-2.109.096-2.742.116-8.082.116-5.34 0-5.973-.02-8.082-.116-1.95-.09-3.009-.415-3.713-.689-.934-.363-1.6-.796-2.3-1.496-.7-.7-1.133-1.366-1.496-2.3-.274-.704-.6-1.763-.689-3.713-.096-2.11-.116-2.742-.116-8.082 0-5.34.02-5.973.116-8.082.09-1.95.415-3.009.689-3.713.363-.934.796-1.6 1.496-2.3.7-.7 1.366-1.133 2.3-1.496.704-.274 1.763-.6 3.713-.689 2.11-.096 2.742-.116 8.082-.116zM20 0c-5.432 0-6.113.023-8.246.12-2.129.098-3.583.436-4.855.93a9.804 9.804 0 0 0-3.542 2.307A9.804 9.804 0 0 0 1.05 6.899C.555 8.171.217 9.625.12 11.754.023 13.887 0 14.568 0 20s.023 6.113.12 8.246c.097 2.129.435 3.583.93 4.855a9.804 9.804 0 0 0 2.307 3.542 9.803 9.803 0 0 0 3.542 2.307c1.272.494 2.726.833 4.855.93 2.133.097 2.814.12 8.246.12s6.113-.023 8.246-.12c2.129-.097 3.582-.436 4.855-.93a9.803 9.803 0 0 0 3.542-2.307 9.802 9.802 0 0 0 2.307-3.542c.494-1.272.832-2.726.93-4.855.097-2.133.12-2.814.12-8.246s-.023-6.113-.12-8.246c-.098-2.129-.436-3.583-.93-4.855a9.803 9.803 0 0 0-2.307-3.542 9.803 9.803 0 0 0-3.542-2.307C31.828.556 30.375.218 28.246.12 26.113.023 25.432 0 20 0zm0 9.73C14.328 9.73 9.73 14.328 9.73 20S14.328 30.27 20 30.27 30.27 25.672 30.27 20 25.672 9.73 20 9.73zm0 16.937a6.667 6.667 0 1 1 0-13.334 6.667 6.667 0 0 1 0 13.334zM33.076 9.324a2.4 2.4 0 1 1-4.8 0 2.4 2.4 0 0 1 4.8 0z"/>
</svg>
