<svg xmlns="http://www.w3.org/2000/svg" width="40" height="40" fill="none">
  <path fill="#fff" fill-rule="evenodd" d="M3 0a3 3 0 0 0-3 3v34a3 3 0 0 0 3 3h34a3 3 0 0 0 3-3V3a3 3 0 0 0-3-3H3zm29.431 12c.927 0 1.121.459.927 1.083-.39 1.718-4.122 6.776-4.122 6.776-.325.5-.454.75 0 1.312.16.215.501.537.892.905.402.379.855.806 1.217 1.218 1.316 1.424 2.308 2.626 2.584 3.454.253.83-.185 1.252-1.06 1.252h-3.064c-.82 0-1.233-.442-2.126-1.398a36.944 36.944 0 0 0-1.461-1.497C24.4 23.42 23.622 23.2 23.168 23.2c-.617 0-.802.168-.802 1.01v2.644c0 .725-.24 1.146-2.188 1.146-3.245 0-6.811-1.896-9.343-5.393C7.038 17.487 6 13.614 6 12.834c0-.438.175-.834 1.05-.834h3.064c.782 0 1.077.33 1.37 1.146 1.499 4.199 4.025 7.869 5.063 7.869.39 0 .568-.173.568-1.125v-4.34c-.07-1.235-.519-1.77-.851-2.165-.205-.245-.366-.436-.366-.707 0-.33.293-.678.78-.678h4.813c.65 0 .875.334.875 1.083v5.84c0 .624.282.843.477.843.39 0 .714-.219 1.428-.906 2.206-2.373 3.764-6.026 3.764-6.026.195-.438.554-.834 1.333-.834h3.063z" clip-rule="evenodd"/>
</svg>
