<svg width="40" height="41" viewBox="0 0 40 41" fill="none" xmlns="http://www.w3.org/2000/svg">
<circle cx="20" cy="20.7031" r="20" fill="white"/>
<path d="M18.0607 12.6425C17.4749 12.0567 16.5251 12.0567 15.9393 12.6425C15.3536 13.2283 15.3536 14.178 15.9393 14.7638L18.0607 12.6425ZM24 20.7031L25.0607 21.7638C25.6464 21.178 25.6464 20.2283 25.0607 19.6425L24 20.7031ZM15.9393 26.6425C15.3536 27.2283 15.3536 28.178 15.9393 28.7638C16.5251 29.3496 17.4749 29.3496 18.0607 28.7638L15.9393 26.6425ZM15.9393 14.7638L22.9393 21.7638L25.0607 19.6425L18.0607 12.6425L15.9393 14.7638ZM22.9393 19.6425L15.9393 26.6425L18.0607 28.7638L25.0607 21.7638L22.9393 19.6425Z" fill="#171D00"/>
</svg>
