<svg xmlns="http://www.w3.org/2000/svg" data-name="Layer 1" viewBox="0 0 100 125"><path d="M26.839 73.165C3.755 50.032-.971 30.522 12.387 13.517a25.897 25.897 0 0 1 1.988-2.243 25.457 25.457 0 0 1 4.322-3.47 26.974 26.974 0 0 1 5.062-2.496 5.042 5.042 0 0 1 5.823 1.797l11.424 17.27a5.025 5.025 0 0 1-.958 6.759l-6.715 5.161a3.754 3.754 0 0 0-1.517 3.24c.4 4.537 4.846 11.873 10.81 17.841 5.966 5.963 13.303 10.408 17.84 10.81a3.756 3.756 0 0 0 3.24-1.518l5.114-6.655a5.064 5.064 0 0 1 6.882-.964l17.115 11.316a5.06 5.06 0 0 1 1.876 5.877 27.037 27.037 0 0 1-2.491 5.054 25.47 25.47 0 0 1-3.475 4.33 25.94 25.94 0 0 1-2.238 1.984c-17.01 13.362-36.52 8.636-59.65-14.445zM25.464 9.942a27.284 27.284 0 0 0-4.086 2.082 20.424 20.424 0 0 0-3.464 2.783 21.008 21.008 0 0 0-1.6 1.804C8.972 25.96 2.435 41.631 30.374 69.63c27.995 27.936 43.668 21.4 53.021 14.053a20.984 20.984 0 0 0 1.8-1.596 20.42 20.42 0 0 0 2.782-3.465 22.02 22.02 0 0 0 2.026-4.116l-17.238-11.42-5.094 6.63a8.682 8.682 0 0 1-7.646 3.451c-7.022-.62-15.667-6.99-20.935-12.254-5.266-5.27-11.635-13.914-12.255-20.936a8.68 8.68 0 0 1 3.451-7.647l6.655-5.113a.412.412 0 0 0-.107-.082z"/></svg>