<svg width="16" height="17" viewBox="0 0 16 17" fill="none" xmlns="http://www.w3.org/2000/svg">
<g clip-path="url(#clip0)">
<path d="M15.2028 0.709961H10.1593C9.75486 0.709961 9.42712 1.0377 9.42712 1.44209C9.42712 1.84649 9.75486 2.17422 10.1593 2.17422H13.5166L6.33174 9.3591C6.04567 9.64499 6.04567 10.1086 6.33174 10.3945C6.47468 10.5375 6.66211 10.609 6.84936 10.609C7.03662 10.609 7.22405 10.5375 7.36699 10.3945L14.4706 3.29071V6.48543C14.4706 6.88983 14.7984 7.21756 15.2028 7.21756C15.6072 7.21756 15.9349 6.88983 15.9349 6.48543V1.44209C15.9349 1.0377 15.6072 0.709961 15.2028 0.709961Z" fill="white"/>
<path d="M12.6711 8.08324C12.2667 8.08324 11.939 8.41097 11.939 8.81537V14.5915C11.939 14.8562 11.7155 15.0796 11.4509 15.0796H2.11641C1.8518 15.0796 1.62833 14.8562 1.62833 14.5915V5.25704C1.62833 4.99242 1.8518 4.76895 2.11641 4.76895H7.91299C8.31738 4.76895 8.64512 4.44121 8.64512 4.03682C8.64512 3.63242 8.31738 3.30469 7.91299 3.30469H2.11641C1.03984 3.30469 0.164062 4.18047 0.164062 5.25704V14.5915C0.164062 15.6681 1.03984 16.5439 2.11641 16.5439H11.4509C12.5275 16.5439 13.4033 15.6681 13.4033 14.5915V8.81537C13.4033 8.41115 13.0755 8.08324 12.6711 8.08324Z" fill="white"/>
</g>
<defs>
<clipPath id="clip0">
<rect width="16" height="16" fill="white" transform="translate(0 0.703125)"/>
</clipPath>
</defs>
</svg>
