<svg xmlns="http://www.w3.org/2000/svg" xmlns:xlink="http://www.w3.org/1999/xlink" x="0px" y="0px" style="enable-background:new 0 0 128 128" version="1.1" viewBox="0 0 128 160" xml:space="preserve">
    <g>
        <path d="M88.5,6c-3.8-1.6-7.8-2.8-11.8-3.7C72.5,1.4,68.3,1,64,1h-1.5c-1.2,0-2.3,0.7-2.7,1.8c-0.5,1.1-0.3,2.3,0.5,3.2   c8.9,10,15.1,21.5,18.6,33.6H47.6c1.7-5.7,3.9-11.3,6.8-16.6c0.8-1.5,0.2-3.3-1.2-4.1c-1.5-0.8-3.3-0.2-4.1,1.2   c-3.3,6.3-5.9,12.8-7.7,19.4H25.4c-1.7,0-3,1.3-3,3s1.3,3,3,3h14.5c-2.5,12.2-2.5,24.7,0,36.9H25.4c-1.7,0-3,1.3-3,3s1.3,3,3,3   h15.9c1.9,7.1,4.7,14,8.4,20.6c0.5,1,1.6,1.5,2.6,1.5c0.5,0,1-0.1,1.5-0.4c1.4-0.8,2-2.6,1.2-4.1c-3.2-5.7-5.6-11.6-7.4-17.7h31.4   c-3.4,11.7-9.3,22.8-17.7,32.5C31.1,119.5,7,94.5,7,64c0-17.3,7.7-33.4,21.1-44.3c1.3-1,1.5-2.9,0.4-4.2c-1-1.3-2.9-1.5-4.2-0.4   C9.5,27.1,1,44.9,1,64c0,34.1,27.3,62,61.1,63c0.1,0,1.5,0,1.9,0c34.7,0,63-28.3,63-63C127,38.6,111.9,15.8,88.5,6z M46,82.4   c-2.6-12.1-2.7-24.7,0-36.9h34.4c2.6,12.1,2.6,24.7,0,36.9H46z M69.1,120.8c7.6-9.9,12.9-20.9,16.1-32.3h30.3   C107,106.2,89.6,118.9,69.1,120.8z M121,64c0,6.4-1.1,12.6-3.1,18.4H86.6c2.4-12.2,2.4-24.7,0-36.9H118C119.9,51.4,121,57.6,121,64   z M85.2,39.6c-3.1-11.5-8.5-22.5-16.1-32.3c2.1,0.2,4.3,0.5,6.4,0.9c3.7,0.7,7.3,1.9,10.7,3.3c13.2,5.6,23.5,15.7,29.3,28.1H85.2z"/>
    </g>
</svg>
